<svg id="visual" viewBox="0 0 1920 1080" width="1920" height="1080" xmlns="http://www.w3.org/2000/svg" xmlns:xlink="http://www.w3.org/1999/xlink" version="1.1"><rect x="0" y="0" width="1920" height="1080" fill="#FFFFFF"></rect><defs><linearGradient id="grad1_0" x1="43.8%" y1="0%" x2="100%" y2="100%"><stop offset="14.444444444444446%" stop-color="#fcaf3c" stop-opacity="1"></stop><stop offset="85.55555555555554%" stop-color="#fcaf3c" stop-opacity="1"></stop></linearGradient></defs><defs><linearGradient id="grad1_1" x1="43.8%" y1="0%" x2="100%" y2="100%"><stop offset="14.444444444444446%" stop-color="#fcaf3c" stop-opacity="1"></stop><stop offset="85.55555555555554%" stop-color="#ffd69f" stop-opacity="1"></stop></linearGradient></defs><defs><linearGradient id="grad1_2" x1="43.8%" y1="0%" x2="100%" y2="100%"><stop offset="14.444444444444446%" stop-color="#ffffff" stop-opacity="1"></stop><stop offset="85.55555555555554%" stop-color="#ffd69f" stop-opacity="1"></stop></linearGradient></defs><defs><linearGradient id="grad2_0" x1="0%" y1="0%" x2="56.3%" y2="100%"><stop offset="14.444444444444446%" stop-color="#fcaf3c" stop-opacity="1"></stop><stop offset="85.55555555555554%" stop-color="#fcaf3c" stop-opacity="1"></stop></linearGradient></defs><defs><linearGradient id="grad2_1" x1="0%" y1="0%" x2="56.3%" y2="100%"><stop offset="14.444444444444446%" stop-color="#ffd69f" stop-opacity="1"></stop><stop offset="85.55555555555554%" stop-color="#fcaf3c" stop-opacity="1"></stop></linearGradient></defs><defs><linearGradient id="grad2_2" x1="0%" y1="0%" x2="56.3%" y2="100%"><stop offset="14.444444444444446%" stop-color="#ffd69f" stop-opacity="1"></stop><stop offset="85.55555555555554%" stop-color="#ffffff" stop-opacity="1"></stop></linearGradient></defs><g transform="translate(1920, 0)"><path d="M0 864C-112.1 852.7 -224.2 841.5 -330.6 798.2C-437.1 755 -537.8 679.7 -584.8 584.8C-631.7 489.8 -624.9 375.1 -662.4 274.4C-700 173.6 -782 86.8 -864 0L0 0Z" fill="#ffeacf"></path><path d="M0 576C-74.7 568.5 -149.5 561 -220.4 532.2C-291.4 503.3 -358.6 453.2 -389.9 389.9C-421.1 326.5 -416.6 250.1 -441.6 182.9C-466.7 115.8 -521.3 57.9 -576 0L0 0Z" fill="#ffc270"></path><path d="M0 288C-37.4 284.2 -74.7 280.5 -110.2 266.1C-145.7 251.7 -179.3 226.6 -194.9 194.9C-210.6 163.3 -208.3 125 -220.8 91.5C-233.3 57.9 -260.7 28.9 -288 0L0 0Z" fill="#fcaf3c"></path></g><g transform="translate(0, 1080)"><path d="M0 -864C122.9 -863.8 245.8 -863.7 330.6 -798.2C415.4 -732.8 462.1 -602 505.6 -505.6C549.1 -409.2 589.4 -347.2 648.6 -268.6C707.8 -190.1 785.9 -95.1 864 0L0 0Z" fill="#ffeacf"></path><path d="M0 -576C81.9 -575.9 163.9 -575.8 220.4 -532.2C277 -488.5 308.1 -401.3 337.1 -337.1C366 -272.8 392.9 -231.5 432.4 -179.1C471.8 -126.7 523.9 -63.4 576 0L0 0Z" fill="#ffc270"></path><path d="M0 -288C41 -287.9 81.9 -287.9 110.2 -266.1C138.5 -244.3 154 -200.7 168.5 -168.5C183 -136.4 196.5 -115.7 216.2 -89.5C235.9 -63.4 262 -31.7 288 0L0 0Z" fill="#fcaf3c"></path></g></svg>